# xmcd
# Copyright (C) 1995-1998 Ti Kan
#
# Track frame offsets:
#       150
#       19892
#       34916
#       56296
#       74350
#       93042
#       116473
#       137538
#       155519
#
# Disc length: 2356 seconds
#
# Revision: 0
# Processed by: cddbd v1.5.2PL0 Copyright (c) Steve Scherf et al.
# Submitted via: CD-Transfer v1.0
#
DISCID=6c093209
DTITLE=Conquerin Lion - Conquering Lion
DYEAR=17
DGENRE=
TTITLE0=Natty Lion
TTITLE1=Sellasie I
TTITLE2=Downtown
TTITLE3=Go
TTITLE4=Rain A Fall
TTITLE5=Step Down
TTITLE6=Wake Up
TTITLE7=Ake Up
TTITLE8=Wanderer
EXTD=
EXTT0=
EXTT1=
EXTT2=
EXTT3=
EXTT4=
EXTT5=
EXTT6=
EXTT7=
EXTT8=
PLAYORDER=
